<?xml version="1.0" standalone="no"?>
<!DOCTYPE svg PUBLIC "-//W3C//DTD SVG 20010904//EN"
 "http://www.w3.org/TR/2001/REC-SVG-20010904/DTD/svg10.dtd">
<svg version="1.0" xmlns="http://www.w3.org/2000/svg"
 width="512.000000pt" height="405.000000pt" viewBox="0 0 512.000000 405.000000"
 preserveAspectRatio="xMidYMid meet">

<g transform="translate(0.000000,405.000000) scale(0.100000,-0.100000)"
fill="#000000" stroke="none">
<path d="M2550 3052 c0 -40 -53 -187 -102 -287 -28 -55 -91 -167 -141 -250
-167 -277 -222 -406 -233 -549 -26 -314 248 -574 554 -528 273 42 454 289 414
565 -23 156 -66 253 -238 530 -126 202 -196 344 -224 452 -21 82 -30 102 -30
67z m-56 -512 c-8 -41 -36 -147 -64 -235 -58 -186 -72 -267 -64 -351 13 -129
-48 -194 -123 -130 -27 23 -28 28 -28 118 1 144 29 216 178 461 36 60 75 133
87 163 13 30 24 53 26 52 1 -2 -4 -37 -12 -78z"/>
<path d="M1927 1589 c-95 -22 -201 -74 -254 -124 -91 -84 -91 -166 1 -259 111
-112 351 -200 649 -237 159 -19 484 -7 629 25 158 34 239 59 327 101 158 76
231 155 231 251 0 46 -4 56 -42 99 -65 74 -258 155 -338 143 -20 -3 -14 -8 35
-26 111 -42 206 -96 246 -139 49 -54 51 -88 7 -138 -90 -103 -277 -175 -556
-216 -127 -18 -175 -21 -357 -16 -221 6 -276 13 -445 54 -246 61 -408 169
-386 256 15 63 123 139 279 197 82 31 65 50 -26 29z"/>
<path d="M2044 1486 c-183 -85 -85 -223 202 -286 94 -20 137 -24 314 -24 179
-1 218 2 310 22 121 27 240 80 268 120 11 15 23 42 27 59 6 28 2 37 -25 62
-46 42 -94 65 -116 57 -15 -6 -8 -13 37 -40 29 -18 55 -40 57 -49 6 -32 -59
-83 -133 -105 -291 -84 -822 -59 -946 45 -47 40 -37 69 41 121 52 34 60 42 40
42 -14 0 -48 -11 -76 -24z"/>
</g>
</svg>
